<svg width="21" height="21" viewBox="0 0 21 21" fill="none" xmlns="http://www.w3.org/2000/svg">
<g clip-path="url(#clip0_13449_17)">
<path d="M15.2045 0H5.79508C2.59968 0 0 2.5998 0 5.79521V15.2047C0 18.4002 2.59968 20.9999 5.79508 20.9999H15.2045C18.4002 20.9999 20.9999 18.4001 20.9999 15.2047V5.79521C21 2.5998 18.4002 0 15.2045 0ZM19.1368 15.2047C19.1368 17.3728 17.3728 19.1367 15.2047 19.1367H5.79508C3.62705 19.1368 1.86321 17.3728 1.86321 15.2047V5.79521C1.86321 3.62717 3.62705 1.86321 5.79508 1.86321H15.2045C17.3727 1.86321 19.1367 3.62717 19.1367 5.79521V15.2047H19.1368Z" fill="white"/>
<path d="M10.4999 5.08911C7.5162 5.08911 5.08881 7.5165 5.08881 10.5002C5.08881 13.4839 7.5162 15.9111 10.4999 15.9111C13.4837 15.9111 15.9111 13.4839 15.9111 10.5002C15.9111 7.5165 13.4837 5.08911 10.4999 5.08911ZM10.4999 14.0478C8.5437 14.0478 6.95202 12.4564 6.95202 10.5001C6.95202 8.54375 8.54357 6.9522 10.4999 6.9522C12.4563 6.9522 14.0479 8.54375 14.0479 10.5001C14.0479 12.4564 12.4562 14.0478 10.4999 14.0478Z" fill="white"/>
<path d="M16.138 3.50928C15.779 3.50928 15.4264 3.65461 15.1729 3.90925C14.9181 4.16264 14.7717 4.51541 14.7717 4.87563C14.7717 5.23473 14.9182 5.58738 15.1729 5.84202C15.4263 6.09541 15.779 6.24199 16.138 6.24199C16.4982 6.24199 16.8498 6.09541 17.1044 5.84202C17.359 5.58738 17.5044 5.23461 17.5044 4.87563C17.5044 4.51541 17.359 4.16264 17.1044 3.90925C16.851 3.65461 16.4982 3.50928 16.138 3.50928Z" fill="white"/>
</g>
<defs>
<clipPath id="clip0_13449_17">
<rect width="21" height="21" fill="white"/>
</clipPath>
</defs>
</svg>
