<svg width="27" height="24" viewBox="0 0 27 24" fill="none" xmlns="http://www.w3.org/2000/svg">
<path d="M26.3284 0L27 1.06024C26.4328 3.72691 25.791 6.34538 25.0746 8.91566C24.3881 11.4859 23.6269 14.0241 22.791 16.5301C21.9552 19.0361 21.0448 21.5261 20.0597 24H14.8209C15.5373 21.1406 16.1642 18.3454 16.7015 15.6145C17.2388 12.8835 17.7015 10.2169 18.0896 7.61446C18.5075 5.01205 18.8358 2.4739 19.0746 0H26.3284ZM11.5075 0L12.2239 1.06024C11.6567 3.72691 11.0149 6.34538 10.2985 8.91566C9.61194 11.4859 8.85075 14.0241 8.01493 16.5301C7.1791 19.0361 6.26866 21.5261 5.28358 24H0C0.507463 22.008 0.970149 19.9679 1.38806 17.8795C1.83582 15.759 2.23881 13.6546 2.59701 11.5663C2.98507 9.47791 3.31343 7.45381 3.58209 5.49398C3.85075 3.53414 4.0597 1.70281 4.20896 0H11.5075Z" fill="#B0855B"/>
</svg>
